<svg width="63" height="63" viewBox="0 0 63 63" fill="none" xmlns="http://www.w3.org/2000/svg">
<path d="M37.0529 46.6845H7.80053L7.79468 17.3824L30.0928 32.7498C30.4189 32.9744 30.8059 33.0947 31.2024 33.0947C31.5989 33.0947 31.986 32.9744 32.3121 32.7498L54.6044 17.3902V35.0367H58.5047V15.6236C58.5031 14.5943 58.0917 13.6077 57.3606 12.8799C56.6295 12.1521 55.6383 11.7425 54.6044 11.741H7.80053C6.76641 11.742 5.77495 12.1514 5.04372 12.8793C4.3125 13.6072 3.90124 14.5942 3.90021 15.6236V46.6845C3.90175 47.7138 4.31318 48.7005 5.04429 49.4282C5.77541 50.156 6.76657 50.5656 7.80053 50.5671H37.0529V46.6845ZM50.3121 15.6236L31.2024 28.7934L12.0928 15.6236H50.3121Z" fill="#75464A"/>
<path d="M50.7041 54.4495C55.0123 54.4495 58.5047 50.9729 58.5047 46.6843C58.5047 42.3957 55.0123 38.9191 50.7041 38.9191C46.3959 38.9191 42.9034 42.3957 42.9034 46.6843C42.9034 50.9729 46.3959 54.4495 50.7041 54.4495Z" fill="#75464A"/>
</svg>
