<svg width="59" height="59" viewBox="0 0 59 59" fill="none" xmlns="http://www.w3.org/2000/svg">
<g clip-path="url(#clip0_70_122)">
<path d="M56.5673 52.6276L52.6264 40.8021H48.3021L50.7036 52.3335H8.4235L10.8249 40.8021H6.50063L2.55688 52.6276C1.55652 55.6373 3.32948 58.0993 6.50063 58.0993H52.6264C55.7976 58.0993 57.5706 55.6373 56.5673 52.6276ZM43.9779 14.8563C43.9779 11.0334 42.4592 7.36708 39.756 4.66387C37.0528 1.96066 33.3865 0.442017 29.5635 0.442017C25.7406 0.442017 22.0743 1.96066 19.3711 4.66387C16.6679 7.36708 15.1492 11.0334 15.1492 14.8563C15.1492 28.622 29.5635 43.685 29.5635 43.685C29.5635 43.685 43.9779 28.622 43.9779 14.8563ZM21.7798 15.0293C21.7798 14.0073 21.9812 12.9952 22.3724 12.051C22.7636 11.1068 23.337 10.249 24.0598 9.52639C24.7826 8.80384 25.6407 8.23076 26.5851 7.83991C27.5294 7.44906 28.5415 7.24808 29.5635 7.24846C31.6275 7.24846 33.607 8.06837 35.0664 9.52783C36.5259 10.9873 37.3458 12.9668 37.3458 15.0307C37.3458 17.0947 36.5259 19.0742 35.0664 20.5337C33.607 21.9931 31.6275 22.813 29.5635 22.813C27.4992 22.813 25.5193 21.993 24.0596 20.5332C22.5999 19.0735 21.7798 17.0937 21.7798 15.0293Z" fill="#75464A"/>
</g>
<defs>
<clipPath id="clip0_70_122">
<rect width="57.6573" height="57.6573" fill="white" transform="translate(0.735107 0.442017)"/>
</clipPath>
</defs>
</svg>
