<svg width="59" height="59" viewBox="0 0 59 59" fill="none" xmlns="http://www.w3.org/2000/svg">
<path d="M48.7827 27.0721H53.5875C53.5875 14.7478 44.2831 5.453 31.942 5.453V10.2578C41.7005 10.2578 48.7827 17.328 48.7827 27.0721Z" fill="#75464A"/>
<path d="M31.9659 19.8672C37.0182 19.8672 39.1731 22.0221 39.1731 27.0743H43.9779C43.9779 19.3266 39.7136 15.0624 31.9659 15.0624V19.8672ZM40.1869 32.9434C39.7253 32.5238 39.1187 32.3 38.4952 32.3193C37.8716 32.3386 37.28 32.5994 36.8452 33.0467L31.0963 38.9589C29.7125 38.6947 26.9305 37.8274 24.0669 34.971C21.2033 32.1049 20.336 29.3157 20.0789 27.9416L25.9864 22.1903C26.4342 21.7557 26.6954 21.164 26.7147 20.5403C26.734 19.9166 26.5098 19.3099 26.0897 18.8486L17.2129 9.08766C16.7926 8.62485 16.2084 8.34413 15.5844 8.3051C14.9605 8.26608 14.3459 8.47183 13.8712 8.87865L8.658 13.3495C8.24265 13.7663 7.99474 14.3211 7.9613 14.9086C7.92527 15.5092 7.23818 29.7362 18.2699 40.7727C27.8939 50.3943 39.9491 51.0982 43.2692 51.0982C43.7545 51.0982 44.0523 51.0838 44.1316 51.079C44.719 51.0461 45.2735 50.7971 45.6884 50.3799L50.1568 45.1643C50.5639 44.6899 50.7701 44.0755 50.7315 43.4515C50.6929 42.8276 50.4127 42.2432 49.9502 41.8226L40.1869 32.9434Z" fill="#75464A"/>
</svg>
