<svg width="76" height="76" viewBox="0 0 76 76" fill="none" xmlns="http://www.w3.org/2000/svg">
<path d="M7.21338 38.2203C7.21514 45.6574 9.86949 52.85 14.6993 58.5054C19.5292 64.1607 26.2178 67.9079 33.563 69.0735V47.2461H25.6397V38.2203H33.5724V31.3495C33.3972 29.7414 33.5783 28.1144 34.1027 26.5842C34.6272 25.0539 35.4821 23.6579 36.6069 22.4953C37.7316 21.3327 39.0986 20.432 40.6106 19.8572C42.1227 19.2824 43.7428 19.0476 45.3558 19.1694C47.6981 19.2069 50.0405 19.4161 52.3516 19.794V27.4737H48.404C47.733 27.3859 47.0509 27.4499 46.4081 27.6611C45.7652 27.8723 45.178 28.2252 44.6899 28.6938C44.2018 29.1625 43.8252 29.7348 43.588 30.3685C43.3508 31.0023 43.2591 31.6812 43.3196 32.3552V38.2203H51.9737L50.5901 47.2492H43.3196V69.0735C49.2148 68.1418 54.7196 65.5404 59.1823 61.5773C63.645 57.6142 66.8786 52.4553 68.5004 46.7115C70.1221 40.9677 70.064 34.8794 68.3331 29.1675C66.6021 23.4556 63.2707 18.3594 58.7332 14.4821C54.1958 10.6048 48.6424 8.10886 42.7304 7.28978C36.8185 6.4707 30.7957 7.36278 25.375 9.8604C19.9543 12.358 15.3628 16.3566 12.1441 21.3827C8.92544 26.4088 7.21433 32.2519 7.21338 38.2203Z" fill="#3F3232" fill-opacity="0.78"/>
</svg>
