<svg width="71" height="70" viewBox="0 0 71 70" fill="none" xmlns="http://www.w3.org/2000/svg">
<path d="M45.9077 35.3313C45.9077 38.0838 44.8143 40.7236 42.868 42.6699C40.9217 44.6162 38.2819 45.7096 35.5294 45.7096C32.7769 45.7096 30.1372 44.6162 28.1909 42.6699C26.2445 40.7236 25.1511 38.0838 25.1511 35.3313C25.1511 34.7397 25.2134 34.162 25.3206 33.6016H21.6917V47.429C21.6917 48.3907 22.4701 49.1691 23.4318 49.1691H47.6305C48.0914 49.1681 48.5331 48.9844 48.8587 48.6582C49.1843 48.3319 49.3672 47.8899 49.3672 47.429V33.6016H45.7382C45.8455 34.162 45.9077 34.7397 45.9077 35.3313ZM35.5294 42.2502C36.4383 42.25 37.3381 42.0707 38.1777 41.7227C39.0173 41.3747 39.7801 40.8648 40.4225 40.222C41.065 39.5792 41.5746 38.8161 41.9222 37.9764C42.2697 37.1366 42.4485 36.2367 42.4483 35.3279C42.4481 34.419 42.2688 33.5191 41.9208 32.6796C41.5728 31.84 41.0629 31.0772 40.4201 30.4348C39.7773 29.7923 39.0142 29.2827 38.1745 28.9351C37.3348 28.5875 36.4348 28.4088 35.526 28.409C33.6905 28.4094 31.9304 29.139 30.6329 30.4372C29.3353 31.7354 28.6066 33.4959 28.6071 35.3313C28.6076 37.1668 29.3371 38.9269 30.6353 40.2244C31.9335 41.5219 33.694 42.2506 35.5294 42.2502ZM43.8321 28.0665H47.9799C48.2555 28.0665 48.5198 27.9573 48.715 27.7627C48.9102 27.5682 49.0203 27.3042 49.0212 27.0287V22.8808C49.0212 22.6046 48.9115 22.3398 48.7162 22.1445C48.521 21.9492 48.2561 21.8395 47.9799 21.8395H43.8321C43.5559 21.8395 43.291 21.9492 43.0958 22.1445C42.9005 22.3398 42.7908 22.6046 42.7908 22.8808V27.0287C42.7942 27.5995 43.2613 28.0665 43.8321 28.0665ZM35.5294 2.12073C26.7214 2.12073 18.2742 5.61969 12.046 11.8479C5.81781 18.0761 2.31885 26.5233 2.31885 35.3313C2.31885 44.1393 5.81781 52.5865 12.046 58.8147C18.2742 65.0429 26.7214 68.5419 35.5294 68.5419C39.8907 68.5419 44.2093 67.6829 48.2386 66.0139C52.2679 64.3449 55.929 61.8986 59.0129 58.8147C62.0967 55.7309 64.543 52.0697 66.212 48.0405C67.881 44.0112 68.74 39.6926 68.74 35.3313C68.74 30.97 67.881 26.6515 66.212 22.6222C64.543 18.5929 62.0967 14.9318 59.0129 11.8479C55.929 8.76399 52.2679 6.31772 48.2386 4.64873C44.2093 2.97974 39.8907 2.12073 35.5294 2.12073ZM52.8266 48.7851C52.8266 50.8988 51.0969 52.6285 48.9832 52.6285H22.0757C19.962 52.6285 18.2323 50.8988 18.2323 48.7851V21.8776C18.2323 19.7638 19.962 18.0341 22.0757 18.0341H48.9832C51.0969 18.0341 52.8266 19.7638 52.8266 21.8776V48.7851Z" fill="#3F3232" fill-opacity="0.78"/>
</svg>
