<svg width="71" height="70" viewBox="0 0 71 70" fill="none" xmlns="http://www.w3.org/2000/svg">
<path d="M35.5812 2.12073C17.2393 2.12073 2.37061 16.9894 2.37061 35.3313C2.37061 53.6732 17.2393 68.5419 35.5812 68.5419C53.9231 68.5419 68.7918 53.6732 68.7918 35.3313C68.7918 16.9894 53.9231 2.12073 35.5812 2.12073ZM27.4515 49.0964H20.7264V27.4542H27.4515V49.0964ZM24.0474 24.7973C21.9233 24.7973 20.5499 23.2925 20.5499 21.4313C20.5499 19.5321 21.9648 18.0722 24.1339 18.0722C26.303 18.0722 27.6314 19.5321 27.6729 21.4313C27.6729 23.2925 26.303 24.7973 24.0474 24.7973ZM52.0135 49.0964H45.2884V37.1025C45.2884 34.3108 44.3128 32.415 41.8808 32.415C40.0231 32.415 38.9195 33.6985 38.4318 34.9335C38.2519 35.3728 38.2069 35.9955 38.2069 36.6148V49.0929H31.4783V34.3558C31.4783 31.6539 31.3918 29.3949 31.3019 27.4507H37.1449L37.4527 30.457H37.5877C38.4733 29.0455 40.6423 26.9629 44.2713 26.9629C48.6959 26.9629 52.0135 29.9277 52.0135 36.3V49.0964Z" fill="#3F3232" fill-opacity="0.78"/>
</svg>
