<svg width="35" height="40" viewBox="0 0 35 40" fill="none" xmlns="http://www.w3.org/2000/svg">
<path d="M33.7695 18.9266C33.662 18.7142 33.5168 18.5287 33.3428 18.3815C33.1688 18.2343 32.9698 18.1284 32.7578 18.0704C31.3291 17.6829 29.8441 17.6309 28.3965 17.9175C29.0117 14.8903 28.6152 12.5205 28.2051 11.1445C28.0817 10.7115 27.819 10.3452 27.4679 10.1164C27.1169 9.88762 26.7024 9.81267 26.3047 9.90607C24.8943 10.263 23.5608 10.9281 22.3809 11.8631C21.5463 9.6249 20.203 7.66954 18.4844 6.19085C18.2004 5.95267 17.855 5.82391 17.5 5.82391C17.145 5.82391 16.7996 5.95267 16.5156 6.19085C14.797 7.66954 13.4537 9.6249 12.6191 11.8631C11.4392 10.9281 10.1058 10.263 8.69532 9.90607C8.29765 9.81267 7.88314 9.88762 7.53206 10.1164C7.18098 10.3452 6.91831 10.7115 6.79493 11.1445C6.38477 12.5205 5.98829 14.8903 6.60352 17.9175C5.15592 17.6309 3.6709 17.6829 2.24219 18.0704C2.03025 18.1284 1.83117 18.2343 1.65718 18.3815C1.48319 18.5287 1.33798 18.7142 1.23047 18.9266C1.01369 19.3535 0.95481 19.8583 1.06641 20.3332C1.53125 22.1678 2.95313 25.6843 7.25977 28.4669C11.5664 31.2495 15.4356 31.2648 17.5 31.2648C19.5645 31.2648 23.4063 31.2648 27.7402 28.4669C32.0742 25.669 33.4688 22.1678 33.9336 20.3332C34.0452 19.8583 33.9863 19.3535 33.7695 18.9266ZM26.5371 11.1139C26.6674 11.0798 26.8044 11.1018 26.9209 11.1754C27.0374 11.249 27.1249 11.369 27.166 11.5114C27.5625 12.8874 27.959 15.3337 27.125 18.4832C27.1113 18.5138 27.1113 18.5443 27.0977 18.5749C26.7699 19.7848 26.3107 20.9452 25.7305 22.0302C24.5607 24.2722 23.0038 26.2315 21.1504 27.7942L20.8086 28.0694C22.1895 26.0359 23.5156 22.917 23.5156 18.422C23.5294 16.5954 23.2801 14.7783 22.7773 13.0403C23.8936 12.1061 25.1755 11.4493 26.5371 11.1139ZM17.1719 7.16934C17.2665 7.08995 17.3817 7.04703 17.5 7.04703C17.6183 7.04703 17.7335 7.08995 17.8281 7.16934C19.209 8.33131 22.4219 11.7255 22.4219 18.422C22.4219 21.9538 21.5469 24.981 19.8379 27.4425C19.1812 28.4061 18.3921 29.2473 17.5 29.9346C16.6079 29.2473 15.8188 28.4061 15.1621 27.4425C13.4531 24.981 12.5781 21.9538 12.5781 18.422C12.5781 11.7255 15.791 8.33131 17.1719 7.16934ZM7.83399 11.5114C7.87508 11.369 7.96256 11.249 8.07907 11.1754C8.19558 11.1018 8.33258 11.0798 8.4629 11.1139C9.82453 11.4493 11.1064 12.1061 12.2227 13.0403C11.7199 14.7783 11.4706 16.5954 11.4844 18.422C11.4844 22.917 12.8106 26.0359 14.1914 28.0694L13.8496 27.7942C11.9962 26.2315 10.4393 24.2722 9.26954 22.0302C8.689 20.94 8.22987 19.7745 7.90235 18.5596L7.875 18.4832C7.04102 15.3337 7.4375 12.8874 7.83399 11.5114ZM2.11915 19.9968C2.10047 19.9201 2.09569 19.8401 2.10508 19.7613C2.11447 19.6825 2.13785 19.6066 2.17383 19.5381C2.24949 19.4014 2.36559 19.2986 2.50196 19.2476C3.9588 18.871 5.47275 18.8658 6.93164 19.2323C7.28626 20.4187 7.74897 21.5612 8.3125 22.6418C10.0762 26.0665 12.6465 28.5128 14.7246 29.9193C12.2838 29.652 9.92365 28.7966 7.80664 27.412C3.82813 24.8434 2.54297 21.6633 2.11915 19.9968ZM32.8809 19.9968C32.457 21.6633 31.1719 24.8434 27.1934 27.412C25.0764 28.7966 22.7162 29.652 20.2754 29.9193C22.3535 28.5128 24.9238 26.0665 26.6875 22.6418C27.251 21.5612 27.7138 20.4187 28.0684 19.2323C29.5273 18.8658 31.0412 18.871 32.4981 19.2476C32.6344 19.2986 32.7505 19.4014 32.8262 19.5381C32.8622 19.6066 32.8855 19.6825 32.8949 19.7613C32.9043 19.8401 32.8995 19.9201 32.8809 19.9968Z" fill="#3F3232"/>
</svg>
